<?xml version="1.0" standalone="no"?><!DOCTYPE svg PUBLIC "-//W3C//DTD SVG 1.1//EN" "http://www.w3.org/Graphics/SVG/1.1/DTD/svg11.dtd"><svg t="1751853093269" class="icon" viewBox="0 0 1024 1024" version="1.1" xmlns="http://www.w3.org/2000/svg" p-id="7738" xmlns:xlink="http://www.w3.org/1999/xlink" width="200" height="200"><path d="M476.891429 416.914286c0 45.348571-38.034286 81.92-81.92 80.457143-45.348571-1.462857-80.457143-38.034286-78.994286-83.382858 1.462857-43.885714 36.571429-80.457143 81.92-80.457142 43.885714 1.462857 80.457143 38.034286 78.994286 83.382857z m343.771428 258.925714l-143.36-197.485714s-8.777143-16.091429-38.034286-16.091429-43.885714 16.091429-43.885714 16.091429l-125.805714 200.411428c-4.388571 8.777143-13.165714 13.165714-23.405714 13.165715-10.24 0-20.48-4.388571-26.331429-13.165715L355.474286 599.771429c-8.777143-13.165714-23.405714-21.942857-39.497143-23.405715-21.942857 0-40.96 26.331429-40.96 26.331429l-71.68 93.622857V288.182857c0-13.165714 10.24-23.405714 23.405714-23.405714h570.514286c13.165714 0 23.405714 10.24 23.405714 23.405714v387.657143zM808.96 204.8H215.04c-38.034286 0-68.754286 32.182857-68.754286 70.217143v472.502857c0 38.034286 30.72 70.217143 68.754286 70.217143h593.92c38.034286 0 68.754286-32.182857 68.754286-70.217143V275.017143c0-38.034286-30.72-70.217143-68.754286-70.217143z m0 0" fill="#2c2c2c" p-id="7739"></path></svg>