<?xml version="1.0" encoding="UTF-8"?>
<svg width="150" height="40" viewBox="0 0 150 40" fill="none" xmlns="http://www.w3.org/2000/svg">
  <!-- 背景渐变 -->
  <linearGradient id="logoGradient" x1="0%" y1="0%" x2="100%" y2="100%">
    <stop offset="0%" stop-color="#3B82F6" />
    <stop offset="100%" stop-color="#2563EB" />
  </linearGradient>
  
  <!-- AI 文字 -->
  <path d="M16 8L10 32H14.5L15.5 28H22.5L23.5 32H28L22 8H16ZM16.5 24L19 14L21.5 24H16.5Z" fill="#1E293B"/>
  <path d="M31 8H35V28H44V32H31V8Z" fill="#1E293B"/>
  
  <!-- Select 文字 -->
  <path d="M54 16C54 14.4 54.5 13.1 55.5 12.1C56.5 11.1 57.9 10.6 59.6 10.6C61.4 10.6 62.7 11.1 63.7 12C64.7 12.9 65.2 14.2 65.2 15.7H61.4C61.4 15 61.2 14.5 60.9 14.2C60.6 13.9 60.1 13.7 59.6 13.7C59.1 13.7 58.7 13.9 58.4 14.2C58.1 14.5 58 14.9 58 15.4C58 16 58.3 16.5 58.8 16.9C59.3 17.3 60 17.6 60.8 18C61.6 18.3 62.4 18.7 63.1 19.1C63.8 19.5 64.5 20.1 65 20.9C65.5 21.7 65.8 22.7 65.8 23.9C65.8 25.6 65.2 26.9 64.1 27.9C63 28.9 61.4 29.4 59.4 29.4C57.4 29.4 55.9 28.9 54.8 27.8C53.7 26.7 53.2 25.3 53.2 23.5H57C57 24.3 57.2 24.9 57.5 25.3C57.9 25.7 58.5 25.9 59.4 25.9C60 25.9 60.5 25.7 60.8 25.4C61.1 25.1 61.3 24.6 61.3 24C61.3 23.3 60.9 22.7 60.2 22.3C59.5 21.9 58.7 21.5 57.6 21.1C56.6 20.7 55.7 20.3 55 19.9C54.3 19.5 53.6 18.9 53.1 18.1C52.5 17.3 52.3 16.3 52.3 15.1L54 16Z" fill="url(#logoGradient)"/>
  <path d="M67 11H77.9V14.2H71.2V18.1H77.3V21.3H71.2V26.2H78V29.4H67V11Z" fill="url(#logoGradient)"/>
  <path d="M84.2 11H80V29.4H84.2V11Z" fill="url(#logoGradient)"/>
  <path d="M86.6 11H93.6C95.3 11 96.7 11.5 97.7 12.6C98.7 13.7 99.2 15.1 99.2 16.8C99.2 18.5 98.7 19.9 97.7 21C96.7 22.1 95.3 22.6 93.6 22.6H90.8V29.4H86.6V11ZM93.2 19.4C93.8 19.4 94.3 19.2 94.6 18.9C94.9 18.6 95.1 18.1 95.1 17.4C95.1 16.7 94.9 16.2 94.6 15.9C94.3 15.6 93.8 15.4 93.2 15.4H90.8V19.4H93.2Z" fill="url(#logoGradient)"/>
  <path d="M110.2 11H106V18.9L100 11H96.2V29.4H100.4V21.5L106.4 29.4H110.2V11Z" fill="url(#logoGradient)"/>
  <path d="M112.5 11H123.4V14.2H116.7V18.1H122.8V21.3H116.7V26.2H123.5V29.4H112.5V11Z" fill="url(#logoGradient)"/>
  <path d="M136.9 15.2H132.7C132.6 14.5 132.3 14 131.9 13.6C131.5 13.2 130.8 13 130 13C129.2 13 128.6 13.2 128.1 13.6C127.6 14 127.4 14.5 127.4 15.1C127.4 15.6 127.6 16 127.9 16.3C128.2 16.6 128.7 16.9 129.3 17.1L132.7 18.3C134.1 18.8 135.1 19.5 135.8 20.4C136.5 21.3 136.8 22.3 136.8 23.6C136.8 25.5 136.2 26.9 134.9 27.9C133.6 28.9 131.9 29.4 129.8 29.4C127.7 29.4 126 28.9 124.7 27.9C123.4 26.9 122.7 25.4 122.6 23.5H126.8C126.9 24.3 127.2 24.9 127.7 25.3C128.2 25.7 128.9 25.9 129.8 25.9C130.7 25.9 131.4 25.7 132 25.3C132.5 24.9 132.8 24.4 132.8 23.7C132.8 23.2 132.6 22.8 132.3 22.4C131.9 22.1 131.3 21.8 130.5 21.5L127.2 20.3C125.8 19.8 124.8 19.1 124.1 18.2C123.4 17.3 123.1 16.2 123.1 14.9C123.1 13.1 123.7 11.7 124.9 10.7C126.1 9.7 127.8 9.2 129.8 9.2C131.8 9.2 133.4 9.7 134.6 10.7C135.8 11.7 136.6 13.2 136.9 15.2Z" fill="url(#logoGradient)"/>
  
  <!-- 图标元素 -->
  <circle cx="40" cy="20" r="7" fill="url(#logoGradient)" opacity="0.6"/>
  <path d="M140 20C140 22.2 138.2 24 136 24C133.8 24 132 22.2 132 20C132 17.8 133.8 16 136 16C138.2 16 140 17.8 140 20Z" fill="url(#logoGradient)" opacity="0.3"/>
</svg> 