<svg width="64" height="64" viewBox="0 0 64 64" fill="none" xmlns="http://www.w3.org/2000/svg">
  <rect width="64" height="64" rx="12" fill="url(#paint0_linear)" />
  <path d="M31 18.5C23.544 18.5 17.5 24.544 17.5 32C17.5 39.456 23.544 45.5 31 45.5H33C40.456 45.5 46.5 39.456 46.5 32C46.5 24.544 40.456 18.5 33 18.5H31ZM31 20.5H33C39.3513 20.5 44.5 25.6487 44.5 32C44.5 38.3513 39.3513 43.5 33 43.5H31C24.6487 43.5 19.5 38.3513 19.5 32C19.5 25.6487 24.6487 20.5 31 20.5Z" fill="white"/>
  <path d="M36 26.5C36 25.9477 35.5523 25.5 35 25.5C34.4477 25.5 34 25.9477 34 26.5V31.5H29C28.4477 31.5 28 31.9477 28 32.5C28 33.0523 28.4477 33.5 29 33.5H34V38.5C34 39.0523 34.4477 39.5 35 39.5C35.5523 39.5 36 39.0523 36 38.5V33.5H41C41.5523 33.5 42 33.0523 42 32.5C42 31.9477 41.5523 31.5 41 31.5H36V26.5Z" fill="white"/>
  <defs>
    <linearGradient id="paint0_linear" x1="0" y1="0" x2="64" y2="64" gradientUnits="userSpaceOnUse">
      <stop stop-color="#4F46E5"/>
      <stop offset="1" stop-color="#7C3AED"/>
    </linearGradient>
  </defs>
</svg> 