<?xml version="1.0" encoding="UTF-8"?>
<svg xmlns="http://www.w3.org/2000/svg" width="135" height="46" viewBox="0 0 135 46" fill="none">
  <path d="M84.8438 14.4876C80.0618 14.4876 76.1758 18.407 76.1758 23.2169C76.1758 28.0267 80.0676 31.9461 84.8438 31.9461C89.6199 31.9461 93.5118 28.0267 93.5118 23.2169C93.5118 18.407 89.6199 14.4876 84.8438 14.4876ZM84.8438 28.2435C82.0921 28.2435 79.8524 25.9879 79.8524 23.2169C79.8524 20.4458 82.0921 18.1902 84.8438 18.1902C87.5954 18.1902 89.8351 20.4458 89.8351 23.2169C89.8351 25.9879 87.5954 28.2435 84.8438 28.2435Z" fill="#7968FA"></path>
  <path d="M126.19 14.4876C121.409 14.4876 117.522 18.407 117.522 23.2169C117.522 28.0267 121.414 31.9461 126.19 31.9461C130.967 31.9461 134.858 28.0267 134.858 23.2169C134.858 18.407 130.967 14.4876 126.19 14.4876ZM126.19 28.2435C123.439 28.2435 121.199 25.9879 121.199 23.2169C121.199 20.4458 123.439 18.1902 126.19 18.1902C128.942 18.1902 131.182 20.4458 131.182 23.2169C131.182 25.9879 128.942 28.2435 126.19 28.2435Z" fill="#7968FA"></path>
  <path d="M69.1584 16.087C67.7447 15.0793 66.0286 14.4817 64.167 14.4817C59.3851 14.4817 55.499 18.4011 55.499 23.211C55.499 28.0208 59.3909 31.9402 64.167 31.9402C66.0228 31.9402 67.7447 31.3426 69.1584 30.3349V39.5563H72.8408V12.7066H69.1584V16.087ZM64.167 28.2434C61.4154 28.2434 59.1756 25.9879 59.1756 23.2168C59.1756 20.4457 61.4154 18.1902 64.167 18.1902C66.9187 18.1902 69.1584 20.4457 69.1584 23.2168C69.1584 25.9879 66.9187 28.2434 64.167 28.2434Z" fill="#7968FA"></path>
  <path d="M110.505 16.0871C109.091 15.0794 107.375 14.4818 105.514 14.4818C100.732 14.4818 96.8457 18.4012 96.8457 23.2111C96.8457 28.0209 100.738 31.9403 105.514 31.9403C107.369 31.9403 109.091 31.3427 110.505 30.335V33.6041H114.187V6.75442H110.505V16.0871ZM105.52 28.2435C102.768 28.2435 100.528 25.988 100.528 23.2169C100.528 20.4458 102.768 18.1903 105.52 18.1903C108.271 18.1903 110.511 20.4458 110.511 23.2169C110.511 25.988 108.271 28.2435 105.52 28.2435Z" fill="#7968FA"></path>
  <circle cx="22.7929" cy="22.7618" r="21.7929" fill="#7968FA"></circle>
  <mask id="mask0_40001745_7426" style="mask-type:alpha" maskUnits="userSpaceOnUse" x="1" y="0" width="52" height="45">
    <path d="M52.9398 30.6312C52.9398 43.0349 35.8625 44.9177 23.4588 44.9177C11.0552 44.9177 1 34.8625 1 22.4588C1 10.0552 11.0552 0 23.4588 0C35.8625 0 52.9398 18.2275 52.9398 30.6312Z" fill="#D9D9D9"></path>
  </mask>
  <g mask="url(#mask0_40001745_7426)">
    <path d="M22.041 14.9905L22.495 11.1803C22.495 11.1803 22.867 9.60521 24.5623 9.87978C26.2576 10.1543 26.0065 11.6139 26.0065 11.6139C26.0065 12.9144 24.2242 15.5445 24.2242 15.5445" fill="white"></path>
    <path d="M22.041 14.9905L22.495 11.1803C22.495 11.1803 22.867 9.60521 24.5623 9.87978C26.2576 10.1543 26.0065 11.6139 26.0065 11.6139C26.0065 12.9144 24.2242 15.5445 24.2242 15.5445" stroke="black" stroke-width="0.724507" stroke-linecap="round" stroke-linejoin="round"></path>
    <path d="M50.3973 33.8741L46.9052 36.0225C46.9873 36.167 39.0805 32.5783 31.4297 30.7431C27.2324 29.7363 23.1124 28.9271 20.3351 30.666C12.7906 35.3914 11.612 61.085 4.62296 71.2487C4.62296 71.2487 5.64692 78.0503 4.72438 84.8903C3.46857 94.1966 -4.03731 98.267 -4.67488 98.2862C8.38073 97.5492 7.9267 102.178 7.9267 102.178C7.9267 102.178 0.338703 102.188 -7.86271 102.193C-9.92997 102.193 -11.3017 102.188 -11.5577 102.178C-12.9536 102.14 -11.4321 97.9827 -11.4321 97.9827C-13.1806 97.0531 -14.5958 95.0203 -15.1561 93.4645L-22.2466 97.9057L-20.0199 102.198C-24.367 102.198 -27.5741 102.193 -27.9798 102.178C-29.3757 102.14 -27.8543 97.4288 -27.8543 97.4288C-32.1772 94.8951 -33.3122 88.0454 -33.3122 88.0454C-33.3122 88.0454 -36.9299 72.6216 -28.5788 52.5879C-25.106 44.2546 -20.0248 34.9531 -10.9539 25.9743C1.09219 14.0524 13.0562 10.9262 22.9385 13.3925C40.1576 17.6844 49.6583 31.4656 50.3973 33.8741Z" fill="white" stroke="black" stroke-width="0.724507" stroke-linecap="round" stroke-linejoin="round"></path>
    <path d="M11.747 16.2531L9.70393 13.4882C9.70393 13.4882 8.50126 11.1905 10.4912 10.4583C12.4812 9.72614 13.2637 11.7637 13.3699 12.2839C13.4762 12.8042 14.2055 15.362 14.2055 15.362" fill="white"></path>
    <path d="M11.747 16.2531L9.70393 13.4882C9.70393 13.4882 8.50126 11.1905 10.4912 10.4583C12.4812 9.72614 13.2637 11.7637 13.3699 12.2839C13.4762 12.8042 14.2055 15.362 14.2055 15.362" stroke="black" stroke-width="0.724507" stroke-linecap="round" stroke-linejoin="round"></path>
    <path d="M43.8008 34.5565L48.8095 31.3195L50.331 33.6606L46.9065 36.0209L43.8008 34.5565Z" fill="#7A68FA" stroke="black" stroke-width="0.724507" stroke-linecap="round" stroke-linejoin="round"></path>
    <path d="M19.79 18.9642C19.79 18.9642 20.331 19.3014 20.331 20.0384C20.331 20.7754 20.2296 23.2899 23.5237 23.2899C26.8177 23.2899 26.7501 20.944 26.7501 18.998" fill="black"></path>
    <path d="M19.79 18.9642C19.79 18.9642 20.331 19.3014 20.331 20.0384C20.331 20.7754 20.2296 23.2899 23.5237 23.2899C26.8177 23.2899 26.7501 20.944 26.7501 18.998" stroke="black" stroke-width="0.724507" stroke-linecap="round" stroke-linejoin="round"></path>
    <path d="M36.5598 18.9642C36.5598 18.9642 36.0188 19.3014 36.0188 20.0384C36.0188 20.7754 36.1203 23.2899 32.8262 23.2899C29.5321 23.2899 29.5997 20.944 29.5997 18.998" fill="black"></path>
    <path d="M36.5598 18.9642C36.5598 18.9642 36.0188 19.3014 36.0188 20.0384C36.0188 20.7754 36.1203 23.2899 32.8262 23.2899C29.5321 23.2899 29.5997 20.944 29.5997 18.998" stroke="black" stroke-width="0.724507" stroke-linecap="round" stroke-linejoin="round"></path>
    <path d="M18.9639 18.8689H37.3856" stroke="black" stroke-width="0.724507" stroke-linecap="round" stroke-linejoin="round"></path>
    <path d="M29.7975 19.9101C29.7975 19.4814 29.3435 18.9467 28.2181 18.9467C27.0927 18.9467 26.5469 19.491 26.5469 19.9101" stroke="black" stroke-width="0.724507" stroke-linecap="round" stroke-linejoin="round"></path>
  </g>
  <path d="M44.3939 25.9098C44.5205 24.9593 44.5859 23.9893 44.5859 23.0041C44.5859 10.9682 34.8289 1.21117 22.7929 1.21117C10.757 1.21117 1 10.9682 1 23.0041C1 35.04 10.757 44.7971 22.7929 44.7971C30.759 44.7971 37.7269 40.5229 41.5282 34.1427" stroke="#0E0F10" stroke-width="0.726431"></path>
</svg>
