<?xml version="1.0" encoding="UTF-8"?>
<svg width="256" height="256" viewBox="0 0 256 256" fill="none" xmlns="http://www.w3.org/2000/svg">
  <!-- v0 by Vercel icon - 现代化设计 -->
  <rect width="256" height="256" rx="48" fill="#000000"/>
  
  <!-- v0 文字设计 -->
  <g transform="translate(32, 80)">
    <!-- v 字母 -->
    <path d="M0 0L30 80L60 0H80L40 120H20L-20 0H0Z" fill="#ffffff" transform="translate(0, 0)"/>
    
    <!-- 0 数字 -->
    <circle cx="140" cy="40" r="35" fill="none" stroke="#ffffff" stroke-width="8"/>
    <circle cx="140" cy="40" r="20" fill="none" stroke="#ffffff" stroke-width="4"/>
  </g>
  
  <!-- 装饰性元素 - 代表代码生成 -->
  <g opacity="0.6">
    <rect x="40" y="180" width="20" height="4" rx="2" fill="#888888"/>
    <rect x="70" y="180" width="30" height="4" rx="2" fill="#888888"/>
    <rect x="110" y="180" width="15" height="4" rx="2" fill="#888888"/>
    
    <rect x="40" y="190" width="35" height="4" rx="2" fill="#888888"/>
    <rect x="85" y="190" width="20" height="4" rx="2" fill="#888888"/>
    <rect x="115" y="190" width="25" height="4" rx="2" fill="#888888"/>
    
    <rect x="40" y="200" width="15" height="4" rx="2" fill="#888888"/>
    <rect x="65" y="200" width="40" height="4" rx="2" fill="#888888"/>
    <rect x="115" y="200" width="10" height="4" rx="2" fill="#888888"/>
  </g>
  
  <!-- AI 装饰点 -->
  <circle cx="200" cy="60" r="3" fill="#666666"/>
  <circle cx="210" cy="70" r="2" fill="#666666"/>
  <circle cx="190" cy="80" r="2" fill="#666666"/>
  
  <!-- Vercel 三角形提示 -->
  <path d="M200 200L210 220L190 220Z" fill="#333333"/>
</svg> 